# xmcd CD database file
#
# Track frame offsets:
#	150
#	12700
#	24242
#	41400
#	52070
#	74657
#	84640
#	99612
#	116717
#	130442
#	143030
#	154060
#	170112
#
# Disc length: 2510 seconds
#
# Revision: 0
# Processed by: cddbd v1.5.1PL0 Copyright (c) Steve Scherf et al.
# Submitted via: CDex 1.51
#
DISCID=bd09cc0d
DTITLE=Michel Leeb - Certains
DYEAR=1997
DGENRE=Jazz
TTITLE0=The Lady Is A Tramp
TTITLE1=Autumn In New York
TTITLE2=Come Rain Or Come Shine
TTITLE3=Can't Buy Me Love
TTITLE4=What's New
TTITLE5=Fly Me To The Moon
TTITLE6=Angel Eyes
TTITLE7=Teach Me Tonight
TTITLE8=Moonight In Vermont
TTITLE9=The Best is Yet to Come
TTITLE10=Where Or When
TTITLE11=L.A. Afternoon
TTITLE12=One For My Baby
EXTD=YEAR: 1997
EXTT0=
EXTT1=
EXTT2=
EXTT3=
EXTT4=
EXTT5=
EXTT6=
EXTT7=
EXTT8=
EXTT9=
EXTT10=
EXTT11=
EXTT12=
PLAYORDER=
